<svg width="27" height="20" viewBox="0 0 27 20" fill="none" xmlns="http://www.w3.org/2000/svg">
<g clip-path="url(#clip0_461_626)">
<path d="M6.86874 11.4144C6.76773 13.1316 8.08086 14.5457 9.79803 14.6467C11.5152 14.5457 12.8283 13.0305 12.7273 11.3134C12.8283 9.5962 11.5152 8.08105 9.79803 7.98004C8.08086 8.18206 6.76773 9.69721 6.86874 11.4144ZM10.6061 11.4144C10.6061 12.1215 10.2021 12.7275 9.69702 12.7275C9.19197 12.7275 8.78793 12.1215 8.78793 11.4144C8.78793 10.7073 9.29298 10.1013 9.79803 10.1013C10.3031 10.1013 10.6061 10.7073 10.6061 11.4144Z" fill="white"/>
<path d="M16.3644 8.08078C14.6473 8.18179 13.3341 9.69694 13.4351 11.4141C13.3341 13.1313 14.6473 14.5454 16.3644 14.7474C18.0816 14.6464 19.3947 13.1313 19.2937 11.4141C19.3947 9.69694 18.0816 8.18179 16.3644 8.08078ZM16.3644 12.6262C15.8594 12.6262 15.4553 12.0202 15.4553 11.3131C15.4553 10.606 15.8594 9.99997 16.3644 9.99997C16.8695 9.99997 17.2735 10.606 17.2735 11.3131C17.2735 12.0202 16.8695 12.6262 16.3644 12.6262Z" fill="white"/>
<path d="M23.8384 4.44411C23.7374 4.3431 23.7374 4.24208 23.7374 4.24208C22.0202 2.12087 19.596 0.605721 16.8687 -0.000339457C16.3636 -0.20236 15.7576 0.201681 15.6566 0.706731C15.5556 1.21178 15.8586 1.81784 16.3636 1.91885C16.3636 1.91885 16.3636 1.91885 16.4646 1.91885C18.6869 2.4239 20.7071 3.63602 22.1212 5.3532C23.4343 8.48451 24.2424 11.8178 24.2424 15.2522C22.8283 16.5653 21.1111 17.4744 19.1919 17.7774V17.3734C19.1919 17.3734 19.1919 17.3734 19.1919 17.2724C20.404 16.7673 21.6162 16.1613 22.6263 15.2522C23.0303 14.9492 23.1313 14.2421 22.8283 13.838C22.5253 13.434 21.8182 13.333 21.4141 13.636C19.0909 15.4542 16.1616 16.3633 13.1313 16.2623C10.202 16.3633 7.27273 15.4542 4.94949 13.636C4.54545 13.333 3.83838 13.333 3.53535 13.838C3.23232 14.3431 3.23232 14.9492 3.73737 15.2522C4.74747 16.0603 5.9596 16.7673 7.17172 17.2724V17.7774C5.25252 17.4744 3.53535 16.5653 2.12121 15.2522C2.12121 11.8178 2.82828 8.48451 4.24242 5.3532C5.55556 3.63602 7.57576 2.52491 9.79798 2.01986C10.303 1.81784 10.6061 1.31279 10.505 0.807741C10.404 0.201681 9.89899 -0.10135 9.29293 -0.000339457C6.56566 0.605721 4.14141 2.01986 2.42424 4.24208V4.3431V4.44411C0.40404 8.48451 0.20202 12.1209 0 15.6562C0 15.9593 0.10101 16.2623 0.30303 16.4643C2.32323 18.5855 5.0505 19.7976 7.9798 20.1007C8.28283 20.1007 8.48485 19.9997 8.68687 19.7976C8.88889 19.5956 8.9899 19.3936 8.9899 19.0906V18.0805C11.6162 18.6865 14.4444 18.6865 17.0707 18.0805V19.0906C17.0707 19.3936 17.1717 19.5956 17.3737 19.7976C17.5758 19.9997 17.7778 20.1007 18.0808 20.1007C21.0101 19.8987 23.8384 18.6865 25.8586 16.5653C26.0606 16.3633 26.1616 16.0603 26.1616 15.7572C25.9596 12.1209 25.7576 8.48451 23.8384 4.44411Z" fill="white"/>
<path d="M20.6058 5.65627C20.9088 5.15122 20.7068 4.54515 20.2017 4.34313C17.9795 3.33303 15.5553 2.72697 13.03 2.82798C10.6058 2.72697 8.08052 3.33303 5.85829 4.34313C5.45425 4.54515 5.25223 5.15122 5.45425 5.65627C5.75728 6.16132 6.36334 6.26233 6.86839 6.06031C8.78759 5.15122 10.9088 4.74717 13.03 4.74717C15.1512 4.74717 17.3734 5.15122 19.2926 6.06031C19.3936 6.16132 19.5957 6.16132 19.7977 6.16132C20.1007 6.16132 20.4037 5.9593 20.6058 5.65627Z" fill="white"/>
</g>
<defs>
<clipPath id="clip0_461_626">
<rect width="26.2626" height="20" fill="white"/>
</clipPath>
</defs>
</svg>
