<svg width="24" height="24" viewBox="0 0 24 24" fill="none" xmlns="http://www.w3.org/2000/svg">
<g clip-path="url(#clip0_461_619)">
<path d="M3.24 0C1.44 0 0 1.44 0 3.24C0 5.04 1.44 6.48 3.24 6.48C5.04 6.48 6.48 5.04 6.48 3.24C6.48 1.44 5.04 0 3.24 0ZM3.24 4.56C2.52 4.56 1.8 3.96 1.8 3.12C1.8 2.28 2.4 1.68 3.24 1.68C4.08 1.68 4.68 2.28 4.68 3.12C4.68 3.96 3.96 4.56 3.24 4.56Z" fill="white"/>
<path d="M5.52 7.44025H0.96C0.36 7.44025 0 7.80025 0 8.28025C0 8.76025 0.36 9.24025 0.96 9.24025H4.68V22.2002H1.8V12.0002C1.8 11.5202 1.44 11.0402 0.84 11.0402C0.24 11.0402 0 11.5202 0 12.0002V23.0402C0 23.6402 0.36 24.0002 0.96 24.0002H5.52C6 24.0002 6.48 23.6402 6.48 23.0402V8.28025C6.48 7.80025 6 7.44025 5.52 7.44025Z" fill="white"/>
<path d="M22.4403 8.87952C21.3603 7.79952 19.9203 7.31952 18.4803 7.31952H17.5203C16.2003 7.31952 15.0003 7.55952 13.8003 8.15952C13.8003 7.67952 13.3203 7.31952 12.8403 7.31952H8.28031C7.80031 7.31952 7.32031 7.67952 7.32031 8.27952V23.0395C7.32031 23.5195 7.68031 23.9995 8.28031 23.9995H12.8403C13.3203 23.9995 13.8003 23.6395 13.8003 23.0395V14.7595C13.8003 13.7995 14.6403 12.9595 15.6003 12.9595C16.5603 12.9595 17.4003 13.7995 17.4003 14.7595V23.0395C17.4003 23.5195 17.7603 23.9995 18.3603 23.9995H22.9203C23.4003 23.9995 23.8803 23.6395 23.8803 23.0395V12.8395C24.0003 11.3995 23.5203 9.95952 22.4403 8.87952ZM22.2003 22.1995H19.4403V14.7595C19.4403 12.7195 17.7603 11.0395 15.7203 11.0395C13.6803 11.0395 12.0003 12.7195 12.0003 14.7595V22.1995H9.24031V9.23952H12.0003V10.1995C12.0003 10.5595 12.2403 10.9195 12.6003 11.0395C12.9603 11.1595 13.3203 11.1595 13.5603 10.7995C14.4003 9.83952 15.1203 9.23952 17.5203 9.23952H18.4803C19.4403 9.23952 20.4003 9.59952 21.1203 10.1995C21.8403 10.9195 22.2003 11.8795 22.0803 12.8395V22.1995H22.2003Z" fill="white"/>
</g>
<defs>
<clipPath id="clip0_461_619">
<rect width="24" height="24" fill="white"/>
</clipPath>
</defs>
</svg>
