<svg xmlns="http://www.w3.org/2000/svg" width="27" height="20" viewBox="0 0 27 20" fill="none">
  <path d="M20.7084 12.024C21.0063 12.024 21.2922 11.9786 21.5768 11.9372C21.4846 12.2472 21.3898 12.5625 21.2375 12.8457C21.0852 13.2572 20.8474 13.6139 20.6109 13.9733C20.4132 14.3621 20.0645 14.6253 19.8079 14.9579C19.5394 15.2812 19.1733 15.4963 18.8834 15.7649C18.5989 16.0454 18.2261 16.1857 17.9295 16.3834C17.6196 16.5611 17.3497 16.7575 17.0611 16.851L16.341 17.1476L15.7077 17.4108L16.3557 20L17.1533 19.8076C17.4085 19.7435 17.7198 19.6687 18.0738 19.5792C18.4359 19.5124 18.822 19.3293 19.2522 19.1623C19.677 18.9726 20.1687 18.8444 20.6256 18.5397C21.0852 18.2485 21.6156 18.0053 22.0832 17.6152C22.5361 17.2131 23.0825 16.8644 23.486 16.3527C23.9268 15.8744 24.3624 15.3721 24.7004 14.8003C25.0918 14.2552 25.3577 13.6566 25.6383 13.0648C25.8921 12.4729 26.0965 11.8677 26.2635 11.2799C26.5802 10.1015 26.7218 8.98196 26.7765 8.02405C26.822 7.0648 26.7952 6.2672 26.7391 5.69005C26.7191 5.4175 26.6817 5.15297 26.655 4.96994L26.6216 4.74549L26.5868 4.75351C26.3492 3.64351 25.8022 2.62348 25.0091 1.81138C24.2159 0.999294 23.2091 0.428337 22.105 0.164564C21.0009 -0.0992069 19.8448 -0.0450172 18.7702 0.320866C17.6956 0.686749 16.7466 1.34937 16.0329 2.23209C15.3192 3.11481 14.87 4.18154 14.7372 5.30889C14.6045 6.43624 14.7936 7.57815 15.2827 8.60251C15.7718 9.62687 16.541 10.4918 17.5011 11.0973C18.4613 11.7028 19.5733 12.0241 20.7084 12.024ZM6.01235 12.024C6.31028 12.024 6.59619 11.9786 6.88075 11.9372C6.78857 12.2472 6.69371 12.5625 6.54141 12.8457C6.3891 13.2572 6.1513 13.6139 5.91482 13.9733C5.71709 14.3621 5.3684 14.6253 5.11189 14.9579C4.84335 15.2812 4.47728 15.4963 4.18737 15.7649C3.9028 16.0454 3.53005 16.1857 3.23346 16.3834C2.92351 16.5611 2.65364 16.7575 2.36506 16.851L1.64495 17.1476L1.01168 17.4108L1.65965 20L2.45724 19.8076C2.71242 19.7435 3.02371 19.6687 3.37775 19.5792C3.73981 19.5124 4.12591 19.3293 4.55611 19.1623C4.97962 18.9713 5.47261 18.8444 5.92952 18.5384C6.3891 18.2472 6.9195 18.004 7.3871 17.6139C7.84001 17.2118 8.38643 16.8631 8.78991 16.3527C9.23079 15.8744 9.66633 15.3721 10.0043 14.8003C10.3958 14.2552 10.6616 13.6566 10.9422 13.0648C11.1961 12.4729 11.4005 11.8677 11.5675 11.2799C11.8841 10.1015 12.0257 8.98196 12.0805 8.02405C12.1259 7.0648 12.0992 6.2672 12.0431 5.69005C12.023 5.4175 11.9856 5.15297 11.9589 4.96994L11.9255 4.74549L11.8908 4.75351C11.6532 3.64351 11.1061 2.62348 10.313 1.81138C9.51987 0.999294 8.51303 0.428337 7.40896 0.164564C6.30489 -0.0992069 5.1487 -0.0450172 4.07414 0.320866C2.99958 0.686749 2.05056 1.34937 1.33686 2.23209C0.623161 3.11481 0.173948 4.18154 0.0411873 5.30889C-0.0915737 6.43624 0.0975437 7.57815 0.586658 8.60251C1.07577 9.62687 1.8449 10.4918 2.80507 11.0973C3.76524 11.7028 4.87721 12.0241 6.01235 12.024Z" fill="white"/>
</svg>