<svg width="28" height="24" viewBox="0 0 28 24" fill="none" xmlns="http://www.w3.org/2000/svg">
<path d="M26.6624 0.534819C26.0607 0.0534819 25.098 -0.187187 24.376 0.173816L1.1515 9.55989C0.188831 9.92089 -0.292506 11.0039 0.188831 11.9666C0.429499 12.4479 0.790502 12.8089 1.1515 12.9292L2.59552 13.5309C3.07685 13.7716 3.67852 13.5309 3.91919 13.0496C4.15986 12.5682 3.91919 11.9666 3.31752 11.7259L2.35485 11.2446L25.098 2.09916C25.2184 2.09916 25.2184 2.09916 25.3387 2.09916C25.459 2.09916 25.459 2.2195 25.459 2.33983L21.3677 21.7136C21.3677 21.834 21.2473 21.9543 21.127 22.0747C21.0067 22.0747 20.8863 22.0747 20.766 21.9543L12.5833 15.6969L20.5253 7.63454C20.8863 7.27354 20.8863 6.55153 20.5253 6.19053C20.1643 5.82953 19.683 5.82953 19.322 6.07019L7.64955 12.9292C7.16822 13.1699 6.92755 13.7716 7.16822 14.2529C7.40889 14.7343 8.01056 14.9749 8.49189 14.7343C8.61223 14.7343 8.61223 14.6139 8.61223 14.6139L13.5459 11.7259L11.1392 14.1326C10.2969 14.8546 10.2969 16.1783 11.0189 17.0206C11.1392 17.1409 11.2596 17.1409 11.2596 17.2613L19.322 23.5187C19.8033 23.8797 20.2847 24 20.766 24C21.0067 24 21.3677 24 21.6083 23.8797C22.4507 23.639 22.932 22.917 23.1727 22.0747L27.264 2.70084C27.625 1.97883 27.3844 1.13649 26.6624 0.534819Z" fill="white"/>
</svg>
