<svg xmlns="http://www.w3.org/2000/svg" width="190" height="80" viewBox="0 0 190 80" fill="none">
  <path d="M65.7266 68.9425V35.9756L82.03 55.7249L98.3334 35.9756V68.9425H92.7018V50.8647L82.03 63.8509L71.3582 50.839V68.9168H65.7266V68.9425Z" fill="white"/>
  <path d="M103.323 57.3962C103.323 53.7704 104.428 50.8388 106.666 48.653C108.903 46.4158 111.783 45.3101 115.28 45.3101C118.623 45.3101 121.323 46.4158 123.38 48.653C125.489 50.8388 126.543 53.5904 126.543 56.8562C126.543 57.5505 126.492 58.2191 126.441 58.8363H108.774C108.954 62.4878 111.654 64.8022 115.717 64.8022C119.343 64.8022 122.095 63.9279 123.998 62.1535V67.2708C121.76 68.8395 118.906 69.6109 115.486 69.6109C111.86 69.6109 108.903 68.5052 106.64 66.3708C104.403 64.185 103.297 61.2535 103.297 57.6276V57.3962H103.323ZM120.937 54.9275C120.937 53.5904 120.397 52.4075 119.292 51.456C118.186 50.5045 116.875 49.9902 115.254 49.9902C113.557 49.9902 112.091 50.5045 110.857 51.456C109.623 52.4075 108.98 53.5646 108.877 54.9275H120.937Z" fill="white"/>
  <path d="M130.246 68.9425V45.8502H135.698V49.2961C136.803 46.8789 139.324 45.4131 142.564 45.4131C143.207 45.4131 143.747 45.4645 144.209 45.5417V50.8647C143.515 50.7361 142.744 50.6333 141.921 50.6333C138.115 50.6333 135.698 53.0248 135.698 56.8049V68.9425H130.246Z" fill="white"/>
  <path d="M148.117 68.9424V37.0298H153.62V68.9424H148.117Z" fill="white"/>
  <path d="M157.914 39.91C157.914 38.0843 159.38 36.6699 161.206 36.6699C162.98 36.6699 164.446 38.0843 164.446 39.91C164.446 41.7358 162.98 43.1502 161.206 43.1502C159.38 43.1502 157.914 41.7358 157.914 39.91ZM158.454 68.9425V45.8502H163.957V68.9425H158.454Z" fill="white"/>
  <path d="M168.793 68.9423V45.8501H174.245V49.1416C175.35 46.9044 177.948 45.3872 181.239 45.3872C186.742 45.3872 189.982 48.9102 189.982 54.6447V68.9423H184.479V55.4419C184.479 52.2789 182.653 50.3245 179.568 50.3245C176.456 50.3245 174.219 52.5103 174.219 55.6733V68.9423H168.793Z" fill="white"/>
  <path d="M102.039 40.7803V35.9644H103.88C104.278 35.9644 104.646 36.1177 104.984 36.3938C105.291 36.6699 105.475 37.0686 105.475 37.5288C105.475 37.9889 105.321 38.357 104.984 38.6331C104.677 38.9398 104.309 39.0625 103.88 39.0625H102.898V40.7496H102.039V40.7803ZM102.898 38.3263H103.818C104.217 38.3263 104.585 38.0502 104.585 37.5594C104.585 37.0686 104.217 36.7619 103.818 36.7619H102.898V38.3263Z" fill="white"/>
  <path d="M108.551 40.7803V35.9644H110.422C110.851 35.9644 111.219 36.1177 111.526 36.3938C111.833 36.6699 111.986 37.038 111.986 37.4674C111.986 38.0809 111.649 38.6024 111.097 38.8478L112.262 40.7803H111.281L110.238 39.0625H109.41V40.7803H108.551ZM109.41 38.2956H110.33C110.79 38.2956 111.127 37.9582 111.127 37.4981C111.127 37.0686 110.821 36.7312 110.391 36.7312H109.41V38.2956Z" fill="white"/>
  <path d="M115.74 40.167C115.249 39.6762 115.004 39.0934 115.004 38.3879C115.004 37.6824 115.249 37.0996 115.74 36.6088C116.231 36.118 116.844 35.8726 117.55 35.8726C118.255 35.8726 118.869 36.118 119.36 36.6088C119.851 37.0996 120.096 37.6824 120.096 38.3879C120.096 39.0934 119.851 39.6762 119.36 40.167C118.869 40.6578 118.255 40.8726 117.55 40.8726C116.844 40.8726 116.231 40.6578 115.74 40.167ZM116.323 39.6149C116.66 39.9523 117.059 40.1057 117.519 40.1057C117.979 40.1057 118.409 39.9523 118.716 39.6149C119.053 39.2775 119.206 38.8787 119.206 38.3879C119.206 37.8971 119.053 37.4983 118.716 37.1609C118.378 36.8235 117.979 36.6701 117.519 36.6701C117.059 36.6701 116.63 36.8235 116.323 37.1609C115.985 37.4983 115.832 37.8971 115.832 38.3879C115.832 38.8787 116.016 39.3081 116.323 39.6149Z" fill="white"/>
  <path d="M122.624 40.0437C122.747 40.0744 122.87 40.1051 123.023 40.1051C123.483 40.1051 123.575 39.829 123.575 39.3382V35.9946H124.434V39.2768C124.434 39.6449 124.434 39.8597 124.312 40.1664C124.158 40.5959 123.821 40.8413 123.085 40.8719C122.901 40.8719 122.747 40.8413 122.594 40.8106V40.0437H122.624Z" fill="white"/>
  <path d="M127.785 40.7803V35.9644H130.853V36.7312H128.644V37.8662H130.699V38.6331H128.644V39.9521H130.883V40.719H127.785V40.7803Z" fill="white"/>
  <path d="M137.92 36.3936V37.3139C137.491 36.8844 137 36.6697 136.417 36.6697C135.926 36.6697 135.528 36.8231 135.19 37.1605C134.853 37.4979 134.699 37.8967 134.699 38.3875C134.699 38.8783 134.853 39.2771 135.19 39.6145C135.528 39.9519 135.926 40.1053 136.417 40.1053C137 40.1053 137.491 39.8906 137.92 39.4611V40.3814C137.521 40.7188 137.031 40.8722 136.417 40.8722C135.712 40.8722 135.098 40.6268 134.607 40.1666C134.116 39.6758 133.871 39.093 133.871 38.3875C133.871 37.682 134.116 37.0685 134.607 36.6083C135.098 36.1176 135.712 35.9028 136.417 35.9028C137.031 35.9028 137.521 36.0562 137.92 36.3936Z" fill="white"/>
  <path d="M142.104 40.7799V36.7615H140.785V35.9946H144.251V36.7615H142.932V40.7799H142.104Z" fill="white"/>
  <path d="M15.2234 59.325L28.261 79.9743L41.3758 59.1964L48.2674 79.9743H56.522L33.7383 11.3147L0.488589 0L18.7464 24.198L0 80H8.2803L15.2234 59.325ZM27.5153 22.758L22.1151 15.6348L27.5153 17.4606L38.1871 49.5789L28.261 65.2909L18.4378 49.7332L27.5153 22.758Z" fill="#12CFA7"/>
</svg>