<svg width="50" height="38" viewBox="0 0 50 38" fill="none" xmlns="http://www.w3.org/2000/svg">
<g clip-path="url(#clip0_3186_1524)">
<path d="M13.0533 21.6874C12.8614 24.95 15.3564 27.6369 18.619 27.8288C21.8816 27.6369 24.3766 24.7581 24.1847 21.4954C24.3766 18.2328 21.8816 15.354 18.619 15.1621C15.3564 15.5459 12.8614 18.4247 13.0533 21.6874ZM20.1543 21.6874C20.1543 23.0308 19.3867 24.1823 18.4271 24.1823C17.4675 24.1823 16.6998 23.0308 16.6998 21.6874C16.6998 20.3439 17.6594 19.1924 18.619 19.1924C19.5786 19.1924 20.1543 20.3439 20.1543 21.6874Z" fill="white"/>
<path d="M31.0956 15.3535C27.8329 15.5454 25.338 18.4242 25.5299 21.6868C25.338 24.9495 27.8329 27.6363 31.0956 28.0202C34.3582 27.8283 36.8531 24.9495 36.6612 21.6868C36.8531 18.4242 34.3582 15.5454 31.0956 15.3535ZM31.0956 23.9899C30.136 23.9899 29.3683 22.8384 29.3683 21.4949C29.3683 20.1515 30.136 19 31.0956 19C32.0552 19 32.8228 20.1515 32.8228 21.4949C32.8228 22.8384 32.0552 23.9899 31.0956 23.9899Z" fill="white"/>
<path d="M45.2929 8.44382C45.101 8.2519 45.101 8.05999 45.101 8.05999C41.8384 4.02968 37.2323 1.15089 32.0505 -0.000620566C31.0909 -0.384459 29.9394 0.383218 29.7475 1.34281C29.5556 2.30241 30.1313 3.45392 31.0909 3.64584C31.0909 3.64584 31.0909 3.64584 31.2828 3.64584C35.505 4.60544 39.3434 6.90847 42.0303 10.1711C44.5252 16.1206 46.0606 22.4539 46.0606 28.9792C43.3737 31.4741 40.1111 33.2014 36.4646 33.7772V33.0095C36.4646 33.0095 36.4646 33.0095 36.4646 32.8176C38.7677 31.858 41.0707 30.7064 42.9899 28.9792C43.7576 28.4034 43.9495 27.06 43.3737 26.2923C42.798 25.5246 41.4545 25.3327 40.6869 25.9085C36.2727 29.363 30.7071 31.0903 24.9495 30.8984C19.3838 31.0903 13.8182 29.363 9.40404 25.9085C8.63636 25.3327 7.29293 25.3327 6.71717 26.2923C6.14141 27.2519 6.14141 28.4034 7.10101 28.9792C9.0202 30.5145 11.3232 31.858 13.6263 32.8176V33.7772C9.9798 33.2014 6.71717 31.4741 4.0303 28.9792C4.0303 22.4539 5.37374 16.1206 8.06061 10.1711C10.5556 6.90847 14.3939 4.79736 18.6162 3.83776C19.5758 3.45392 20.1515 2.49433 19.9596 1.53473C19.7677 0.383218 18.8081 -0.19254 17.6566 -0.000620566C12.4747 1.15089 7.86869 3.83776 4.60606 8.05999V8.2519V8.44382C0.767677 16.1206 0.383838 23.0297 0 29.7469C0 30.3226 0.191919 30.8984 0.575758 31.2822C4.41414 35.3125 9.59596 37.6155 15.1616 38.1913C15.7374 38.1913 16.1212 37.9994 16.505 37.6155C16.8889 37.2317 17.0808 36.8479 17.0808 36.2721V34.3529C22.0707 35.5044 27.4444 35.5044 32.4343 34.3529V36.2721C32.4343 36.8479 32.6263 37.2317 33.0101 37.6155C33.3939 37.9994 33.7778 38.1913 34.3535 38.1913C39.9192 37.8075 45.2929 35.5044 49.1313 31.4741C49.5151 31.0903 49.7071 30.5145 49.7071 29.9388C49.3232 23.0297 48.9394 16.1206 45.2929 8.44382Z" fill="white"/>
<path d="M39.1494 10.7471C39.7252 9.78746 39.3413 8.63594 38.3817 8.2521C34.1595 6.33291 29.5534 5.1814 24.7555 5.37332C20.1494 5.1814 15.3514 6.33291 11.1292 8.2521C10.3615 8.63594 9.97768 9.78746 10.3615 10.7471C10.9373 11.7066 12.0888 11.8986 13.0484 11.5147C16.6949 9.78746 20.7252 9.01978 24.7555 9.01978C28.7858 9.01978 33.008 9.78746 36.6544 11.5147C36.8464 11.7066 37.2302 11.7066 37.614 11.7066C38.1898 11.7066 38.7656 11.3228 39.1494 10.7471Z" fill="white"/>
</g>
<defs>
<clipPath id="clip0_3186_1524">
<rect width="49.899" height="38" fill="white"/>
</clipPath>
</defs>
</svg>
