<svg xmlns="http://www.w3.org/2000/svg" width="42" height="42" viewBox="0 0 42 42" fill="none">
  <g clip-path="url(#clip0_400_321)">
    <path d="M5.67 0C2.52 0 0 2.52 0 5.67C0 8.82 2.52 11.34 5.67 11.34C8.82 11.34 11.34 8.82 11.34 5.67C11.34 2.52 8.82 0 5.67 0ZM5.67 7.98C4.41 7.98 3.15 6.93 3.15 5.46C3.15 3.99 4.2 2.94 5.67 2.94C7.14 2.94 8.19 3.99 8.19 5.46C8.19 6.93 6.93 7.98 5.67 7.98Z" fill="white"/>
    <path d="M9.66 13.0204H1.68C0.63 13.0204 0 13.6504 0 14.4904C0 15.3304 0.63 16.1704 1.68 16.1704H8.19V38.8504H3.15V21.0004C3.15 20.1604 2.52 19.3204 1.47 19.3204C0.42 19.3204 0 20.1604 0 21.0004V40.3204C0 41.3704 0.63 42.0004 1.68 42.0004H9.66C10.5 42.0004 11.34 41.3704 11.34 40.3204V14.4904C11.34 13.6504 10.5 13.0204 9.66 13.0204Z" fill="white"/>
    <path d="M39.2725 15.5392C37.3825 13.6492 34.8625 12.8092 32.3425 12.8092H30.6625C28.3525 12.8092 26.2525 13.2292 24.1525 14.2792C24.1525 13.4392 23.3125 12.8092 22.4725 12.8092H14.4925C13.6525 12.8092 12.8125 13.4392 12.8125 14.4892V40.3192C12.8125 41.1592 13.4425 41.9992 14.4925 41.9992H22.4725C23.3125 41.9992 24.1525 41.3692 24.1525 40.3192V25.8292C24.1525 24.1492 25.6225 22.6792 27.3025 22.6792C28.9825 22.6792 30.4525 24.1492 30.4525 25.8292V40.3192C30.4525 41.1592 31.0825 41.9992 32.1325 41.9992H40.1125C40.9525 41.9992 41.7925 41.3692 41.7925 40.3192V22.4692C42.0025 19.9492 41.1625 17.4292 39.2725 15.5392ZM38.8525 38.8492H34.0225V25.8292C34.0225 22.2592 31.0825 19.3192 27.5125 19.3192C23.9425 19.3192 21.0025 22.2592 21.0025 25.8292V38.8492H16.1725V16.1692H21.0025V17.8492C21.0025 18.4792 21.4225 19.1092 22.0525 19.3192C22.6825 19.5292 23.3125 19.5292 23.7325 18.8992C25.2025 17.2192 26.4625 16.1692 30.6625 16.1692H32.3425C34.0225 16.1692 35.7025 16.7992 36.9625 17.8492C38.2225 19.1092 38.8525 20.7892 38.6425 22.4692V38.8492H38.8525Z" fill="white"/>
  </g>
  <defs>
    <clipPath id="clip0_400_321">
      <rect width="42" height="42" fill="white"/>
    </clipPath>
  </defs>
</svg>