<svg width="66" height="36" viewBox="0 0 66 36" fill="none" xmlns="http://www.w3.org/2000/svg">
<path d="M60.75 31.2746C59.85 30.3746 58.5 26.0996 58.5 17.9996C58.5 9.89961 59.85 5.39961 60.525 4.72461C61.425 5.62461 62.55 10.3496 62.55 17.9996C62.775 26.0996 61.425 30.3746 60.75 31.2746Z" stroke="white" stroke-width="4" stroke-miterlimit="10" stroke-linecap="round" stroke-linejoin="round"/>
<path d="M46.1242 32.8504C42.0742 32.8504 38.6992 26.1004 38.6992 18.0004C38.6992 12.3754 40.2742 7.20039 42.7492 4.72539C43.8742 3.60039 44.9992 3.15039 46.1242 3.15039C47.9242 3.15039 49.9492 4.72539 51.2992 7.20039C52.8742 10.1254 53.7742 13.9504 53.7742 18.0004C53.7742 26.1004 50.1742 32.8504 46.1242 32.8504Z" stroke="white" stroke-width="4" stroke-miterlimit="10" stroke-linecap="round" stroke-linejoin="round"/>
<path d="M17.775 33.75C9.225 33.75 2.25 26.775 2.25 18C2.25 13.725 3.825 9.9 6.75 6.75C9.675 3.825 13.725 2.25 17.775 2.25C22.05 2.25 25.875 3.825 28.8 6.975C31.725 9.9 33.3 13.95 33.3 18.225C33.525 26.775 26.325 33.75 17.775 33.75Z" stroke="white" stroke-width="4" stroke-miterlimit="10" stroke-linecap="round" stroke-linejoin="round"/>
</svg>
