<svg width="38" height="40" viewBox="0 0 38 40" fill="none" xmlns="http://www.w3.org/2000/svg">
<path d="M15.4895 35.4557C15.4894 35.1891 15.4307 34.9258 15.3176 34.6844C15.2045 34.443 15.0396 34.2295 14.8347 34.0589C14.6299 33.8883 14.39 33.7649 14.1321 33.6974C13.8742 33.6299 13.6047 33.6199 13.3425 33.6681C10.963 34.1048 7.95864 34.1705 7.15984 31.9268C6.46331 30.1891 5.30956 28.6723 3.82091 27.5371C3.71469 27.4793 3.61346 27.4128 3.51826 27.3382C3.38797 26.9946 3.15656 26.6985 2.85455 26.489C2.55254 26.2795 2.19413 26.1665 1.82659 26.1649H1.81772C1.33712 26.1647 0.876022 26.355 0.535357 26.694C0.194691 27.033 0.00220334 27.4931 2.54858e-05 27.9737C-0.00708169 29.4559 1.47417 30.4056 2.0751 30.7269C2.78372 31.4389 3.35322 32.2769 3.75434 33.1978C4.41645 35.0581 6.34064 37.8805 11.8718 37.5167C11.8736 37.5806 11.8754 37.6409 11.8763 37.6959L11.8842 38.1823C11.8842 38.6644 12.0757 39.1267 12.4166 39.4676C12.7575 39.8085 13.2199 40 13.7019 40C14.184 40 14.6464 39.8085 14.9872 39.4676C15.3281 39.1267 15.5196 38.6644 15.5196 38.1823L15.5108 37.6036C15.5019 37.2592 15.4895 36.7603 15.4895 35.4557ZM34.8788 7.96125C34.9365 7.73404 34.9933 7.48198 35.043 7.19797C35.337 5.17231 35.0807 3.10487 34.301 1.21231C34.2026 0.965578 34.0514 0.743355 33.8581 0.561214C33.6648 0.379074 33.4339 0.241425 33.1818 0.157917C32.5347 -0.0604239 30.1455 -0.489999 25.5764 2.43003C21.7784 1.53626 17.8248 1.53626 14.0268 2.43003C9.47635 -0.447229 7.09949 -0.0567885 6.45868 0.14912C6.20033 0.229244 5.96317 0.366164 5.7646 0.549844C5.56602 0.733524 5.41107 0.959309 5.31108 1.21065C4.51548 3.13955 4.26199 5.24916 4.57797 7.31163C4.62236 7.54416 4.67028 7.75896 4.71999 7.95598C3.21416 9.9617 2.41208 12.4082 2.43811 14.9161C2.43321 15.4757 2.45898 16.0351 2.51533 16.5918C3.12244 24.9578 8.57551 27.4695 12.3751 28.3323C12.2961 28.5595 12.2242 28.8026 12.1603 29.06C12.0464 29.5277 12.1226 30.0215 12.3722 30.4331C12.6218 30.8446 13.0245 31.1404 13.4919 31.2556C13.9592 31.3707 14.4532 31.2958 14.8654 31.0473C15.2777 30.7988 15.5745 30.3969 15.6909 29.9298C15.8066 29.3242 16.103 28.7678 16.5412 28.334C16.8061 28.1021 16.998 27.7981 17.0933 27.4592C17.1887 27.1202 17.1835 26.7608 17.0784 26.4247C16.9733 26.0887 16.7727 25.7904 16.5012 25.5662C16.2297 25.342 15.8988 25.2015 15.5489 25.1619C9.27044 24.4448 6.54477 21.8869 6.13474 16.2581C6.08932 15.8123 6.06887 15.3642 6.0735 14.9161C6.04433 13.1287 6.63485 11.3863 7.74474 9.98492C7.85626 9.83882 7.97504 9.69841 8.10064 9.56422C8.32319 9.3152 8.47281 9.00968 8.5331 8.6812C8.59338 8.35271 8.56199 8.01397 8.44237 7.70216C8.31974 7.37412 8.22532 7.03621 8.16014 6.69212C8.01205 5.71369 8.06062 4.71554 8.30301 3.75611C9.88282 4.20231 11.3697 4.9286 12.6927 5.90041C12.9115 6.04614 13.1591 6.14312 13.4187 6.18477C13.6782 6.22643 13.9437 6.21178 14.1971 6.14183C17.8709 5.14483 21.744 5.14545 25.4175 6.14365C25.6722 6.21352 25.9391 6.22733 26.1998 6.18413C26.4604 6.14092 26.7086 6.04172 26.9272 5.89337C28.2441 4.91752 29.7247 4.18474 31.2992 3.72954C31.5405 4.66593 31.5945 5.64076 31.4581 6.59807C31.3923 6.97531 31.2894 7.34514 31.151 7.70219C31.0314 8.01401 31 8.35275 31.0603 8.68123C31.1206 9.00971 31.2702 9.31524 31.4927 9.56426C31.633 9.72223 31.7732 9.89264 31.8992 10.0524C33.0013 11.4301 33.5818 13.1524 33.5386 14.9161C33.5419 15.388 33.519 15.8597 33.4702 16.3291C33.07 21.8833 30.3337 24.443 24.0259 25.1619C23.6759 25.2018 23.345 25.3425 23.0735 25.5669C22.802 25.7913 22.6015 26.0898 22.4965 26.426C22.3915 26.7622 22.3864 27.1217 22.4819 27.4608C22.5774 27.7998 22.7694 28.1038 23.0345 28.3358C23.4864 28.7812 23.7835 29.3598 23.8821 29.9866C24.0049 30.4732 24.0613 30.9742 24.0498 31.4759V35.7184C24.032 36.8953 24.032 37.7775 24.032 38.1822C24.032 38.6643 24.2235 39.1266 24.5644 39.4675C24.9053 39.8084 25.3677 39.9999 25.8497 39.9999C26.3318 39.9999 26.7942 39.8084 27.135 39.4675C27.4759 39.1266 27.6674 38.6643 27.6674 38.1822C27.6674 37.7881 27.6674 36.9237 27.6852 35.7468V31.4759C27.6998 30.6722 27.6052 29.8702 27.4038 29.092C27.3463 28.8365 27.2758 28.5841 27.1926 28.3358C29.9578 27.8764 32.4702 26.4508 34.2827 24.3125C36.0952 22.1743 37.0902 19.4623 37.0905 16.6593C37.1504 16.0802 37.1782 15.4982 37.174 14.9161C37.2143 12.4055 36.4056 9.95473 34.8788 7.96125Z" fill="white"/>
</svg>
