<svg width="46" height="40" viewBox="0 0 46 40" fill="none" xmlns="http://www.w3.org/2000/svg">
<path d="M44.4373 0.891365C43.4345 0.0891365 41.83 -0.311978 40.6267 0.289694L1.91917 15.9331C0.314718 16.5348 -0.48751 18.3398 0.314718 19.9443C0.715832 20.7465 1.3175 21.3482 1.91917 21.5487L4.32586 22.5515C5.12809 22.9526 6.13087 22.5515 6.53199 21.7493C6.9331 20.9471 6.53199 19.9443 5.5292 19.5432L3.92475 18.7409L41.83 3.49861C42.0306 3.49861 42.0306 3.49861 42.2311 3.49861C42.4317 3.49861 42.4317 3.69916 42.4317 3.89972L35.6128 36.1894C35.6128 36.39 35.4122 36.5905 35.2117 36.7911C35.0111 36.7911 34.8105 36.7911 34.61 36.5905L20.9721 26.1616L34.2089 12.7242C34.8105 12.1226 34.8105 10.9192 34.2089 10.3175C33.6072 9.71588 32.805 9.71588 32.2033 10.117L12.7493 21.5487C11.947 21.9499 11.5459 22.9526 11.947 23.7549C12.3481 24.5571 13.3509 24.9582 14.1532 24.5571C14.3537 24.5571 14.3537 24.3565 14.3537 24.3565L22.5766 19.5432L18.5654 23.5543C17.1615 24.7577 17.1615 26.9638 18.3649 28.3677C18.5654 28.5682 18.766 28.5682 18.766 28.7688L32.2033 39.1978C33.0055 39.7994 33.8078 40 34.61 40C35.0111 40 35.6128 40 36.0139 39.7994C37.4178 39.3983 38.22 38.195 38.6211 36.7911L45.4401 4.50139C46.0417 3.29805 45.6406 1.89415 44.4373 0.891365Z" fill="white"/>
</svg>
