<svg width="46" height="40" viewBox="0 0 46 40" fill="none" xmlns="http://www.w3.org/2000/svg">
<path d="M45.1745 5.87253C44.9772 5.67526 44.9772 5.67526 44.78 5.47799C45.1745 4.68892 45.3718 3.89985 45.569 3.11077C45.7663 2.51897 45.3718 1.72989 44.78 1.33536C44.1882 0.94082 43.3991 0.94082 42.8073 1.33536C41.6237 2.12443 40.2428 2.71624 38.8619 2.91351C35.5083 -0.242793 30.5766 -0.834598 26.434 1.13809C22.0941 3.30804 19.9241 8.23976 21.1077 12.9742C21.305 13.9605 22.2914 14.5524 23.2777 14.3551C24.264 14.1578 24.8558 13.1715 24.6586 12.1851C23.8695 9.02883 25.2504 5.87254 28.2094 4.29439C31.1684 2.71624 34.9165 3.50531 37.0865 6.0698C37.481 6.46434 38.0728 6.66161 38.6646 6.46434H39.0592C38.4674 7.25341 38.4674 8.23976 39.0592 9.02883C39.2565 9.2261 39.4537 9.2261 39.651 9.42337C39.2565 9.8179 38.8619 10.4097 39.0592 11.0015C39.651 18.4977 36.4947 25.9939 30.5766 30.7284C24.4613 36.0546 15.9788 37.4355 8.48255 34.6737C11.4416 34.0819 14.2033 32.8983 16.3733 30.9256C16.7678 30.3338 16.9651 29.742 16.5706 28.953C16.176 28.3612 15.5842 27.9666 14.9924 27.9666C13.0197 27.9666 11.047 26.9803 9.66616 25.5994C10.258 25.4021 10.8498 25.2049 11.4416 25.0076C12.0334 24.6131 12.4279 24.0212 12.4279 23.2322C12.4279 22.4431 11.8361 21.8513 11.047 21.8513C8.67982 21.2595 6.70713 19.6813 5.72079 17.5114C6.11533 17.5114 6.50986 17.5114 7.10167 17.7087C7.89074 17.7087 8.48255 17.3141 8.87709 16.7223C9.07436 15.9332 8.87709 15.1442 8.28528 14.7496C5.32625 12.1851 4.73445 9.2261 5.12898 7.25342C8.48255 10.8042 12.6252 13.1715 17.3596 14.1578C18.346 14.3551 19.3323 13.7633 19.5296 12.7769C19.7269 11.7906 19.1351 10.8042 18.1487 10.607C13.4143 9.42337 9.27163 6.85888 6.3126 2.91351C5.91806 2.51897 5.52352 2.3217 4.93172 2.3217C4.33991 2.3217 3.94537 2.51897 3.55084 2.91351C1.18361 5.87253 0.986343 10.2124 2.95903 13.3687H2.76176C2.16995 13.566 1.97269 14.1578 1.77542 14.7496C1.77542 17.7087 2.95903 20.6677 5.12898 22.6404C4.73445 23.0349 4.53718 23.824 4.73445 24.4158C5.72079 27.1775 7.69348 29.3475 10.258 30.7284C7.49621 31.7147 4.53718 32.3065 1.77542 32.3065C0.789074 32.3065 0 33.0956 0 34.0819C0 34.6737 0.394536 35.2656 0.789074 35.6601C5.32625 38.4218 10.4552 40 15.5842 40C21.6995 40 27.6176 37.6328 32.352 33.6874C38.8619 28.3612 42.61 20.4704 42.2155 11.9879C43.5964 11.0015 44.5827 9.62064 44.9772 8.04249C45.7663 6.85888 45.569 6.26707 45.1745 5.87253Z" fill="white"/>
</svg>
